# xmcd CD database file
#
# Track frame offsets:
#	150
#	13659
#	28175
#	41434
#	55119
#	70380
#	85473
#	98663
#	113431
#	132368
#	150822
#	165271
#	176650
#	188845
#	199800
#	210511
#	222273
#	248765
#	264728
#	299227
#
# Disc length: 4208 seconds
#
# Revision: 1
# Processed by: cddbd v1.5.2PL0 Copyright (c) Steve Scherf et al.
# Submitted via: CDex 1.70beta2
#
DISCID=19106e14
DTITLE=Lester Young - The Essential 2 - Metro
DYEAR=2004
DGENRE=Jazz
TTITLE0=Empty Hearted
TTITLE1=Circus In Rhythm
TTITLE2=Poor Little Plaything
TTITLE3=Tush
TTITLE4=Blue Lester
TTITLE5=Ghost Of A Chance
TTITLE6=Indiana
TTITLE7=Jump Lester Jump
TTITLE8=Mean To Me 
TTITLE9=I've Found A New Baby
TTITLE10=Lester's Be-Bop Boogie
TTITLE11=I'm Confessin'
TTITLE12=Crazy Over J-Z
TTITLE13=Ding Dong
TTITLE14=Blues'n'Bells
TTITLE15=June Bug
TTITLE16=Ad Lib Blues
TTITLE17=Almost Like Being In Love
TTITLE18=Just You, Just Me 
TTITLE19=I Can't Get Started
EXTD=YEAR: 2004
EXTT0=
EXTT1=
EXTT2=
EXTT3=
EXTT4=
EXTT5=
EXTT6=
EXTT7=
EXTT8=
EXTT9=
EXTT10=
EXTT11=
EXTT12=
EXTT13=
EXTT14=
EXTT15=
EXTT16=
EXTT17=
EXTT18=
EXTT19=
PLAYORDER=
